<svg xmlns="http://www.w3.org/2000/svg" xmlns:oryx="http://oryx-editor.org" id="_36A5B8EE-7F63-4882-85DF-7E40A13F1816" width="553" height="261" xmlns:xlink="http://www.w3.org/1999/xlink" xmlns:svg="http://www.w3.org/2000/svg"><defs><marker id="_D57A4D8D-B6A6-419D-B9AB-8A5882835D4Dstart" refX="1" refY="5" markerUnits="userSpaceOnUse" markerWidth="17" markerHeight="11" orient="auto" fill="#000000" stroke="#000000"> 	  		<path id="_D57A4D8D-B6A6-419D-B9AB-8A5882835D4Dconditional" d="M 0 5 L 8 0 L 16 5 L 8 10 L 0 5" fill="white" stroke="#000000" stroke-width="1" display="none"/> 			<path id="_D57A4D8D-B6A6-419D-B9AB-8A5882835D4Ddefault" d="M 5 0 L 11 10" fill="white" stroke="#000000" stroke-width="1" display="none"/> 	  	</marker><marker id="_D57A4D8D-B6A6-419D-B9AB-8A5882835D4Dend" refX="15" refY="6" markerUnits="userSpaceOnUse" markerWidth="15" markerHeight="12" orient="auto" fill="#000000" stroke="#000000"> 	  		<path id="_D57A4D8D-B6A6-419D-B9AB-8A5882835D4Dframe2" d="M 0 1 L 15 6 L 0 11z" fill="#000000" stroke="#000000" stroke-linejoin="round" stroke-width="2"/> 	  	</marker><marker id="_BAB8B36A-38D1-4B31-99A0-A65FDF2142B3start" refX="1" refY="5" markerUnits="userSpaceOnUse" markerWidth="17" markerHeight="11" orient="auto" fill="#000000" stroke="#000000"> 	  		<path id="_BAB8B36A-38D1-4B31-99A0-A65FDF2142B3conditional" d="M 0 5 L 8 0 L 16 5 L 8 10 L 0 5" fill="white" stroke="#000000" stroke-width="1" display="none"/> 			<path id="_BAB8B36A-38D1-4B31-99A0-A65FDF2142B3default" d="M 5 0 L 11 10" fill="white" stroke="#000000" stroke-width="1" display="none"/> 	  	</marker><marker id="_BAB8B36A-38D1-4B31-99A0-A65FDF2142B3end" refX="15" refY="6" markerUnits="userSpaceOnUse" markerWidth="15" markerHeight="12" orient="auto" fill="#000000" stroke="#000000"> 	  		<path id="_BAB8B36A-38D1-4B31-99A0-A65FDF2142B3frame2" d="M 0 1 L 15 6 L 0 11z" fill="#000000" stroke="#000000" stroke-linejoin="round" stroke-width="2"/> 	  	</marker><marker id="_8B1C7299-C914-4B97-9509-7E6375B29F7Dstart" refX="1" refY="5" markerUnits="userSpaceOnUse" markerWidth="17" markerHeight="11" orient="auto" fill="#000000" stroke="#000000"> 	  		<path id="_8B1C7299-C914-4B97-9509-7E6375B29F7Dconditional" d="M 0 5 L 8 0 L 16 5 L 8 10 L 0 5" fill="white" stroke="#000000" stroke-width="1" display="none"/> 			<path id="_8B1C7299-C914-4B97-9509-7E6375B29F7Ddefault" d="M 5 0 L 11 10" fill="white" stroke="#000000" stroke-width="1" display="none"/> 	  	</marker><marker id="_8B1C7299-C914-4B97-9509-7E6375B29F7Dend" refX="15" refY="6" markerUnits="userSpaceOnUse" markerWidth="15" markerHeight="12" orient="auto" fill="#000000" stroke="#000000"> 	  		<path id="_8B1C7299-C914-4B97-9509-7E6375B29F7Dframe2" d="M 0 1 L 15 6 L 0 11z" fill="#000000" stroke="#000000" stroke-linejoin="round" stroke-width="2"/> 	  	</marker></defs><g stroke="none" font-family="Verdana, sans-serif" font-size-adjust="none" font-style="normal" font-variant="normal" font-weight="normal" line-heigth="normal" font-size="12"><g class="stencils" transform="translate(15, 16)"><g class="me"/><g class="children"><g id="_3D35E1D1-CB21-4973-9303-7D09BBC14B91" bpmn2nodeid="processStartEvent"><g class="stencils" transform="translate(120, 165)"><g class="me"><g pointer-events="fill" id="_3D35E1D1-CB21-4973-9303-7D09BBC14B91">        <defs id="_3D35E1D1-CB21-4973-9303-7D09BBC14B91__3D35E1D1-CB21-4973-9303-7D09BBC14B91_5"> 		<radialGradient id="_3D35E1D1-CB21-4973-9303-7D09BBC14B91background" cx="10%" cy="10%" r="100%" fx="10%" fy="10%"> 			<stop offset="0%" stop-color="#ffffff" stop-opacity="1" id="_3D35E1D1-CB21-4973-9303-7D09BBC14B91__3D35E1D1-CB21-4973-9303-7D09BBC14B91_6"/> 			<stop id="_3D35E1D1-CB21-4973-9303-7D09BBC14B91fill_el" offset="100%" stop-color="#9acd32" stop-opacity="1"/> 		</radialGradient> 	</defs> 	     <circle id="_3D35E1D1-CB21-4973-9303-7D09BBC14B91bg_frame" cx="15" cy="15" r="15" stroke="#000000" fill="url(#_3D35E1D1-CB21-4973-9303-7D09BBC14B91background) white" stroke-width="1" style="stroke-dasharray: 5.5, 3"/>      <circle id="_3D35E1D1-CB21-4973-9303-7D09BBC14B91frame" cx="15" cy="15" r="15" stroke="#000000" fill="none" stroke-width="1" display="inherit"/>  	<text font-size="11" id="_3D35E1D1-CB21-4973-9303-7D09BBC14B91text_name" x="15" y="32" oryx:align="top center" stroke="black" stroke-width="0pt" letter-spacing="-0.01px" fill="#000000" text-anchor="middle" transform="rotate(0 15 32)" visibility="inherit" oryx:fontSize="11"/>   </g></g><g class="children" style="overflow:hidden"/><g class="edge"/></g><g class="controls"><g class="dockers"/><g class="magnets" transform="translate(120, 165)"><g pointer-events="all" display="none" transform="translate(7, 7)"><circle cx="8" cy="8" r="4" stroke="none" fill="red" fill-opacity="0.3"/></g></g></g></g><g id="_533AD442-E3D5-4E34-81EE-37EE28A9776F" bpmn2nodeid="_4E716A3E-F1FD-48E6-9840-764B997DB59F"><g class="stencils" transform="translate(195, 135)"><g class="me"><g pointer-events="fill" oryx:minimumSize="50 40" id="_533AD442-E3D5-4E34-81EE-37EE28A9776F">   	<defs id="_533AD442-E3D5-4E34-81EE-37EE28A9776F__533AD442-E3D5-4E34-81EE-37EE28A9776F_17"> 		<radialGradient id="_533AD442-E3D5-4E34-81EE-37EE28A9776Fbackground" cx="10%" cy="10%" r="100%" fx="10%" fy="10%"> 			<stop offset="0%" stop-color="#ffffff" stop-opacity="1" id="_533AD442-E3D5-4E34-81EE-37EE28A9776F__533AD442-E3D5-4E34-81EE-37EE28A9776F_18"/> 			<stop id="_533AD442-E3D5-4E34-81EE-37EE28A9776Ffill_el" offset="100%" stop-color="#fafad2" stop-opacity="1"/> 		</radialGradient> 		<radialGradient id="_533AD442-E3D5-4E34-81EE-37EE28A9776Fborderbackground" cx="10%" cy="10%" r="100%" fx="10%" fy="10%"> 			<stop offset="0%" stop-color="#ffffff" stop-opacity="1" id="_533AD442-E3D5-4E34-81EE-37EE28A9776F__533AD442-E3D5-4E34-81EE-37EE28A9776F_19"/> 			<stop id="_533AD442-E3D5-4E34-81EE-37EE28A9776Ffill_border" offset="100%" stop-color="#000000" stop-opacity="1" stroke="#000000"/> 		</radialGradient> 	</defs> 	 	<rect id="_533AD442-E3D5-4E34-81EE-37EE28A9776Ftext_frame" oryx:anchors="bottom top right left" x="1" y="1" width="94" height="79" rx="10" ry="10" stroke="none" stroke-width="0" fill="none"/> 	<rect id="_533AD442-E3D5-4E34-81EE-37EE28A9776Fbg_frame" oryx:resize="vertical horizontal" x="0" y="0" width="100" height="80" rx="10" ry="10" stroke="#000000" stroke-width="1" fill="url(#_533AD442-E3D5-4E34-81EE-37EE28A9776Fbackground) #ffffcc"/> 		<text font-size="12" id="_533AD442-E3D5-4E34-81EE-37EE28A9776Ftext_name" x="50" y="40" oryx:align="middle center" oryx:fittoelem="text_frame" stroke="black" text-anchor="middle" stroke-width="0pt" letter-spacing="-0.01px" fill="#000000" transform="rotate(0 50 40)" visibility="inherit" oryx:fontSize="12"><tspan x="50" y="40" dy="5" id="ext-gen875">outputTask</tspan></text>     <g id="_533AD442-E3D5-4E34-81EE-37EE28A9776FmanualTask" transform="scale(0.7,0.7) translate(8,8)" display="none">     	<path oryx:anchors="top left" id="_533AD442-E3D5-4E34-81EE-37EE28A9776Fframe" style="opacity:1;fill:none;fill-opacity:1;stroke-width:1" d="M0.5,3.751l4.083-3.25c0,0,11.166,0.083,12.083,0.083s-2.417,2.917-1.5,2.917     s11.667,0,12.584,0c1.166,1.708-0.168,3.167-0.834,3.667s0.875,1.917-1,4.417c-0.75,0.25,0.75,1.875-1.333,3.333     c-1.167,0.583,0.583,1.542-1.25,2.833c-1.167,0-20.833,0.083-20.833,0.083l-2-1.333V3.751z" stroke="#000000"/> 		<path id="_533AD442-E3D5-4E34-81EE-37EE28A9776Fframe2" oryx:anchors="top left" style="opacity:1;fill:none;stroke-width:2" d="M 13.5 7 L 27 7" stroke="#000000"/> 		<path id="_533AD442-E3D5-4E34-81EE-37EE28A9776Fframe3" oryx:anchors="top left" style="opacity:1;fill:none;stroke-width:2" d="M 13.5 11 L 26 11" stroke="#000000"/> 		<path id="_533AD442-E3D5-4E34-81EE-37EE28A9776Fframe4" oryx:anchors="top left" style="opacity:1;fill:none;stroke-width:1.5" d="M 14 14.5 L 25 14.5" stroke="#000000"/> 		<path id="_533AD442-E3D5-4E34-81EE-37EE28A9776Fframe5" oryx:anchors="top left" style="opacity:1;fill:none;stroke-width:1.5" d="M 8.2 3.1 L 15 3.1" stroke="#000000"/> 	</g> 	 	<g id="_533AD442-E3D5-4E34-81EE-37EE28A9776FbusinessRuleTask" transform="scale(0.7,0.7) translate(8,8)" display="none"> 		<rect id="_533AD442-E3D5-4E34-81EE-37EE28A9776Fframe6" oryx:anchors="top left" x="0" y="0" width="22" height="4" style="opacity:1;fill:#B3B1B3;fill-opacity:1;" stroke="#000000"/> 		<rect id="_533AD442-E3D5-4E34-81EE-37EE28A9776Fframe7" oryx:anchors="top left" x="0" y="4" style="opacity:1;fill:none;" width="22" height="12" stroke="#000000"/> 		<path id="_533AD442-E3D5-4E34-81EE-37EE28A9776Fframe8" oryx:anchors="top left" style="opacity:1;fill:none;" d="M 0 10 L 22 10" stroke="#000000"/> 		<path id="_533AD442-E3D5-4E34-81EE-37EE28A9776Fframe9" oryx:anchors="top left" style="opacity:1; fill:none;" d="M 7 4 L 7 16" stroke="#000000"/> 	</g> 	 	<g id="_533AD442-E3D5-4E34-81EE-37EE28A9776FscriptTask" transform="scale(0.7,0.7) translate(8,8)" display="none"> 		<path oryx:anchors="top left" id="_533AD442-E3D5-4E34-81EE-37EE28A9776Fframe10" style="opacity:1;fill:none;" stroke="#000000" d="M6.402,0.5h14.5c0,0-5.833,2.833-5.833,5.583s4.417,6,4.417,9.167    s-4.167,5.083-4.167,5.083H0.235c0,0,5-2.667,5-5s-4.583-6.75-4.583-9.25S6.402,0.5,6.402,0.5z"/> 		<path oryx:anchors="top left" id="_533AD442-E3D5-4E34-81EE-37EE28A9776Fframe11" style="opacity:1;fill:none;stroke-width:1.5" d="M 3.5 4.5 L 13.5 4.5" stroke="#000000"/> 		<path oryx:anchors="top left" id="_533AD442-E3D5-4E34-81EE-37EE28A9776Fframe12" style="opacity:1;fill:none;stroke-width:1.5" d="M 3.8 8.5 L 13.8 8.5" stroke="#000000"/> 		<path oryx:anchors="top left" id="_533AD442-E3D5-4E34-81EE-37EE28A9776Fframe13" style="opacity:1;fill:none;stroke-width:1.5" d="M 6.3 12.5 L 16.3 12.5" stroke="#000000"/> 		<path oryx:anchors="top left" id="_533AD442-E3D5-4E34-81EE-37EE28A9776Fframe14" style="opacity:1;fill:none;stroke-width:1.5" d="M 6.5 16.5 L 16.5 16.5" stroke="#000000"/> 	</g> 	 	<g id="_533AD442-E3D5-4E34-81EE-37EE28A9776FuserTask" transform="scale(0.7,0.7) translate(8,8)" display="inherit"> 		<path id="_533AD442-E3D5-4E34-81EE-37EE28A9776Fframe15" oryx:anchors="top left" style="opacity:1;fill:#F4F6F7" stroke="#000000" d="M0.585,24.167h24.083v-7.833c0,0-2.333-3.917-7.083-5.167h-9.25    c-4.417,1.333-7.833,5.75-7.833,5.75L0.585,24.167z"/> 		<path id="_533AD442-E3D5-4E34-81EE-37EE28A9776Fframe16" oryx:anchors="top left" style="opacity:1;fill:none" d="M 6 20 L 6 24" stroke="#000000"/> 		<path id="_533AD442-E3D5-4E34-81EE-37EE28A9776Fframe17" oryx:anchors="top left" style="opacity:1;fill:none" d="M 20 20 L 20 24" stroke="#000000"/> 		<circle id="_533AD442-E3D5-4E34-81EE-37EE28A9776Fframe18" oryx:anchors="top left" fill="black" cx="13.002" cy="5.916" r="5.417" stroke="#000000"/> 		<path id="_533AD442-E3D5-4E34-81EE-37EE28A9776Fframe19" oryx:anchors="top left" style="opacity:1;fill:#F0EFF0;" stroke="#000000" d="M8.043,7.083c0,0,2.814-2.426,5.376-1.807s4.624-0.693,4.624-0.693    c0.25,1.688,0.042,3.75-1.458,5.584c0,0,1.083,0.75,1.083,1.5s0.125,1.875-1,3s-5.5,1.25-6.75,0S8.668,12.834,8.668,12    s0.583-1.25,1.25-1.917C8.835,9.5,7.419,7.708,8.043,7.083z"/> 	</g> 	 	<g id="_533AD442-E3D5-4E34-81EE-37EE28A9776FserviceTask" transform="scale(0.7,0.7) translate(8,8)" display="none"> 		<polygon oryx:anchors="top left" id="_533AD442-E3D5-4E34-81EE-37EE28A9776Fframe20" style="opacity:1;fill:#ffffff" stroke="#000000" points="15.392,5.064 17.954,2.502 20.347,4.895 17.786,7.455     18.729,9.732 22.353,9.732 22.353,13.115 18.731,13.115 17.788,15.392 20.351,17.955 17.958,20.347 15.397,17.786 13.12,18.729     13.12,22.353 9.737,22.353 9.737,18.731 7.46,17.788 4.897,20.35 2.506,17.958 5.066,15.397 4.124,13.12 0.5,13.12 0.5,9.737     4.121,9.737 5.065,7.461 2.503,4.898 4.895,2.506 7.455,5.066 9.732,4.125 9.732,0.5 13.116,0.5 13.116,4.121 "/> 		<circle oryx:anchors="top left" id="_533AD442-E3D5-4E34-81EE-37EE28A9776Fframe21" style="opacity:1;fill:none" stroke="#000000" cx="11.427" cy="11.426" r="3.714"/> 		<polygon oryx:anchors="top left" id="_533AD442-E3D5-4E34-81EE-37EE28A9776Fframe22" style="opacity:1;fill:#ffffff" stroke="#000000" points="21.392,11.064 23.954,8.502 26.347,10.895 23.786,13.455     24.729,15.732 28.353,15.732 28.353,19.115 24.731,19.115 23.788,21.392 26.351,23.955 23.958,26.347 21.397,23.786 19.12,24.729     19.12,28.353 15.737,28.353 15.737,24.731 13.46,23.788 10.897,26.35 8.506,23.958 11.066,21.397 10.124,19.12 6.5,19.12     6.5,15.737 10.121,15.737 11.065,13.461 8.503,10.898 10.895,8.506 13.455,11.066 15.732,10.125 15.732,6.5 19.116,6.5     19.116,10.121 "/> 		<circle oryx:anchors="top left" id="_533AD442-E3D5-4E34-81EE-37EE28A9776Fframe23" style="opacity:1;fill:none;" stroke="#000000" cx="17.427" cy="17.426" r="3.714"/> 	</g> 	 	<g id="_533AD442-E3D5-4E34-81EE-37EE28A9776FsendTask" display="none"> 		<path id="_533AD442-E3D5-4E34-81EE-37EE28A9776Fstframe24" oryx:anchors="left top" stroke="#FFFFFF" fill="black" stroke-width="1" d="M8,11 L8,21 L24,21 L24,11 L16,17z"/> 		<path id="_533AD442-E3D5-4E34-81EE-37EE28A9776Fstframe25" oryx:anchors="left top" stroke="#FFFFFF" fill="black" stroke-width="1" d="M7,10 L16,17 L25 10z"/> 	</g> 	 	<g id="_533AD442-E3D5-4E34-81EE-37EE28A9776FreceiveTask" display="none"> 		<path id="_533AD442-E3D5-4E34-81EE-37EE28A9776Fframe26" oryx:anchors="left top" stroke="#000000" fill="none" stroke-width="1" d="M8,11 L8,21 L24,21 L24,11z M8,11 L16,17 L24,11"/> 	</g> 	 	<g id="_533AD442-E3D5-4E34-81EE-37EE28A9776Fnone" display="inherit"/>  	<g id="_533AD442-E3D5-4E34-81EE-37EE28A9776Fsequential" display="none">         <path oryx:anchors="bottom" fill="none" stroke="#000000" stroke-width="2" d="M46,76h10M46,72h10 M46,68h10" id="_533AD442-E3D5-4E34-81EE-37EE28A9776F__533AD442-E3D5-4E34-81EE-37EE28A9776F_20"/>     </g>   </g></g><g class="children" style="overflow:hidden"/><g class="edge"/></g><g class="controls"><g class="dockers"/><g class="magnets" transform="translate(195, 135)"><g pointer-events="all" display="none" transform="translate(-7, 12)"><circle cx="8" cy="8" r="4" stroke="none" fill="red" fill-opacity="0.3"/></g><g pointer-events="all" display="none" transform="translate(-7, 32)"><circle cx="8" cy="8" r="4" stroke="none" fill="red" fill-opacity="0.3"/></g><g pointer-events="all" display="none" transform="translate(-7, 52)"><circle cx="8" cy="8" r="4" stroke="none" fill="red" fill-opacity="0.3"/></g><g pointer-events="all" display="none" transform="translate(17, 71)"><circle cx="8" cy="8" r="4" stroke="none" fill="red" fill-opacity="0.3"/></g><g pointer-events="all" display="none" transform="translate(42, 71)"><circle cx="8" cy="8" r="4" stroke="none" fill="red" fill-opacity="0.3"/></g><g pointer-events="all" display="none" transform="translate(67, 71)"><circle cx="8" cy="8" r="4" stroke="none" fill="red" fill-opacity="0.3"/></g><g pointer-events="all" display="none" transform="translate(91, 12)"><circle cx="8" cy="8" r="4" stroke="none" fill="red" fill-opacity="0.3"/></g><g pointer-events="all" display="none" transform="translate(91, 32)"><circle cx="8" cy="8" r="4" stroke="none" fill="red" fill-opacity="0.3"/></g><g pointer-events="all" display="none" transform="translate(91, 52)"><circle cx="8" cy="8" r="4" stroke="none" fill="red" fill-opacity="0.3"/></g><g pointer-events="all" display="none" transform="translate(17, -7)"><circle cx="8" cy="8" r="4" stroke="none" fill="red" fill-opacity="0.3"/></g><g pointer-events="all" display="none" transform="translate(42, -7)"><circle cx="8" cy="8" r="4" stroke="none" fill="red" fill-opacity="0.3"/></g><g pointer-events="all" display="none" transform="translate(67, -7)"><circle cx="8" cy="8" r="4" stroke="none" fill="red" fill-opacity="0.3"/></g><g pointer-events="all" display="none" transform="translate(42, 32)"><circle cx="8" cy="8" r="4" stroke="none" fill="red" fill-opacity="0.3"/></g></g></g></g><g id="_39D549BF-5356-47F4-9718-9A6568C1157D" bpmn2nodeid="_000BF4C4-4672-4CB5-B009-A6B8A8A52EB8"><g class="stencils" transform="translate(340, 140)"><g class="me"><g pointer-events="fill" oryx:minimumSize="50 40" id="_39D549BF-5356-47F4-9718-9A6568C1157D">   	<defs id="_39D549BF-5356-47F4-9718-9A6568C1157D__39D549BF-5356-47F4-9718-9A6568C1157D_17"> 		<radialGradient id="_39D549BF-5356-47F4-9718-9A6568C1157Dbackground" cx="10%" cy="10%" r="100%" fx="10%" fy="10%"> 			<stop offset="0%" stop-color="#ffffff" stop-opacity="1" id="_39D549BF-5356-47F4-9718-9A6568C1157D__39D549BF-5356-47F4-9718-9A6568C1157D_18"/> 			<stop id="_39D549BF-5356-47F4-9718-9A6568C1157Dfill_el" offset="100%" stop-color="#fafad2" stop-opacity="1"/> 		</radialGradient> 		<radialGradient id="_39D549BF-5356-47F4-9718-9A6568C1157Dborderbackground" cx="10%" cy="10%" r="100%" fx="10%" fy="10%"> 			<stop offset="0%" stop-color="#ffffff" stop-opacity="1" id="_39D549BF-5356-47F4-9718-9A6568C1157D__39D549BF-5356-47F4-9718-9A6568C1157D_19"/> 			<stop id="_39D549BF-5356-47F4-9718-9A6568C1157Dfill_border" offset="100%" stop-color="#000000" stop-opacity="1" stroke="#000000"/> 		</radialGradient> 	</defs> 	 	<rect id="_39D549BF-5356-47F4-9718-9A6568C1157Dtext_frame" oryx:anchors="bottom top right left" x="1" y="1" width="94" height="79" rx="10" ry="10" stroke="none" stroke-width="0" fill="none"/> 	<rect id="_39D549BF-5356-47F4-9718-9A6568C1157Dbg_frame" oryx:resize="vertical horizontal" x="0" y="0" width="100" height="80" rx="10" ry="10" stroke="#000000" stroke-width="1" fill="url(#_39D549BF-5356-47F4-9718-9A6568C1157Dbackground) #ffffcc"/> 		<text font-size="12" id="_39D549BF-5356-47F4-9718-9A6568C1157Dtext_name" x="50" y="40" oryx:align="middle center" oryx:fittoelem="text_frame" stroke="black" text-anchor="middle" stroke-width="0pt" letter-spacing="-0.01px" fill="#000000" transform="rotate(0 50 40)" visibility="inherit" oryx:fontSize="12"><tspan x="50" y="40" dy="5" id="ext-gen872">inputTask</tspan></text>     <g id="_39D549BF-5356-47F4-9718-9A6568C1157DmanualTask" transform="scale(0.7,0.7) translate(8,8)" display="none">     	<path oryx:anchors="top left" id="_39D549BF-5356-47F4-9718-9A6568C1157Dframe" style="opacity:1;fill:none;fill-opacity:1;stroke-width:1" d="M0.5,3.751l4.083-3.25c0,0,11.166,0.083,12.083,0.083s-2.417,2.917-1.5,2.917     s11.667,0,12.584,0c1.166,1.708-0.168,3.167-0.834,3.667s0.875,1.917-1,4.417c-0.75,0.25,0.75,1.875-1.333,3.333     c-1.167,0.583,0.583,1.542-1.25,2.833c-1.167,0-20.833,0.083-20.833,0.083l-2-1.333V3.751z" stroke="#000000"/> 		<path id="_39D549BF-5356-47F4-9718-9A6568C1157Dframe2" oryx:anchors="top left" style="opacity:1;fill:none;stroke-width:2" d="M 13.5 7 L 27 7" stroke="#000000"/> 		<path id="_39D549BF-5356-47F4-9718-9A6568C1157Dframe3" oryx:anchors="top left" style="opacity:1;fill:none;stroke-width:2" d="M 13.5 11 L 26 11" stroke="#000000"/> 		<path id="_39D549BF-5356-47F4-9718-9A6568C1157Dframe4" oryx:anchors="top left" style="opacity:1;fill:none;stroke-width:1.5" d="M 14 14.5 L 25 14.5" stroke="#000000"/> 		<path id="_39D549BF-5356-47F4-9718-9A6568C1157Dframe5" oryx:anchors="top left" style="opacity:1;fill:none;stroke-width:1.5" d="M 8.2 3.1 L 15 3.1" stroke="#000000"/> 	</g> 	 	<g id="_39D549BF-5356-47F4-9718-9A6568C1157DbusinessRuleTask" transform="scale(0.7,0.7) translate(8,8)" display="none"> 		<rect id="_39D549BF-5356-47F4-9718-9A6568C1157Dframe6" oryx:anchors="top left" x="0" y="0" width="22" height="4" style="opacity:1;fill:#B3B1B3;fill-opacity:1;" stroke="#000000"/> 		<rect id="_39D549BF-5356-47F4-9718-9A6568C1157Dframe7" oryx:anchors="top left" x="0" y="4" style="opacity:1;fill:none;" width="22" height="12" stroke="#000000"/> 		<path id="_39D549BF-5356-47F4-9718-9A6568C1157Dframe8" oryx:anchors="top left" style="opacity:1;fill:none;" d="M 0 10 L 22 10" stroke="#000000"/> 		<path id="_39D549BF-5356-47F4-9718-9A6568C1157Dframe9" oryx:anchors="top left" style="opacity:1; fill:none;" d="M 7 4 L 7 16" stroke="#000000"/> 	</g> 	 	<g id="_39D549BF-5356-47F4-9718-9A6568C1157DscriptTask" transform="scale(0.7,0.7) translate(8,8)" display="none"> 		<path oryx:anchors="top left" id="_39D549BF-5356-47F4-9718-9A6568C1157Dframe10" style="opacity:1;fill:none;" stroke="#000000" d="M6.402,0.5h14.5c0,0-5.833,2.833-5.833,5.583s4.417,6,4.417,9.167    s-4.167,5.083-4.167,5.083H0.235c0,0,5-2.667,5-5s-4.583-6.75-4.583-9.25S6.402,0.5,6.402,0.5z"/> 		<path oryx:anchors="top left" id="_39D549BF-5356-47F4-9718-9A6568C1157Dframe11" style="opacity:1;fill:none;stroke-width:1.5" d="M 3.5 4.5 L 13.5 4.5" stroke="#000000"/> 		<path oryx:anchors="top left" id="_39D549BF-5356-47F4-9718-9A6568C1157Dframe12" style="opacity:1;fill:none;stroke-width:1.5" d="M 3.8 8.5 L 13.8 8.5" stroke="#000000"/> 		<path oryx:anchors="top left" id="_39D549BF-5356-47F4-9718-9A6568C1157Dframe13" style="opacity:1;fill:none;stroke-width:1.5" d="M 6.3 12.5 L 16.3 12.5" stroke="#000000"/> 		<path oryx:anchors="top left" id="_39D549BF-5356-47F4-9718-9A6568C1157Dframe14" style="opacity:1;fill:none;stroke-width:1.5" d="M 6.5 16.5 L 16.5 16.5" stroke="#000000"/> 	</g> 	 	<g id="_39D549BF-5356-47F4-9718-9A6568C1157DuserTask" transform="scale(0.7,0.7) translate(8,8)" display="inherit"> 		<path id="_39D549BF-5356-47F4-9718-9A6568C1157Dframe15" oryx:anchors="top left" style="opacity:1;fill:#F4F6F7" stroke="#000000" d="M0.585,24.167h24.083v-7.833c0,0-2.333-3.917-7.083-5.167h-9.25    c-4.417,1.333-7.833,5.75-7.833,5.75L0.585,24.167z"/> 		<path id="_39D549BF-5356-47F4-9718-9A6568C1157Dframe16" oryx:anchors="top left" style="opacity:1;fill:none" d="M 6 20 L 6 24" stroke="#000000"/> 		<path id="_39D549BF-5356-47F4-9718-9A6568C1157Dframe17" oryx:anchors="top left" style="opacity:1;fill:none" d="M 20 20 L 20 24" stroke="#000000"/> 		<circle id="_39D549BF-5356-47F4-9718-9A6568C1157Dframe18" oryx:anchors="top left" fill="black" cx="13.002" cy="5.916" r="5.417" stroke="#000000"/> 		<path id="_39D549BF-5356-47F4-9718-9A6568C1157Dframe19" oryx:anchors="top left" style="opacity:1;fill:#F0EFF0;" stroke="#000000" d="M8.043,7.083c0,0,2.814-2.426,5.376-1.807s4.624-0.693,4.624-0.693    c0.25,1.688,0.042,3.75-1.458,5.584c0,0,1.083,0.75,1.083,1.5s0.125,1.875-1,3s-5.5,1.25-6.75,0S8.668,12.834,8.668,12    s0.583-1.25,1.25-1.917C8.835,9.5,7.419,7.708,8.043,7.083z"/> 	</g> 	 	<g id="_39D549BF-5356-47F4-9718-9A6568C1157DserviceTask" transform="scale(0.7,0.7) translate(8,8)" display="none"> 		<polygon oryx:anchors="top left" id="_39D549BF-5356-47F4-9718-9A6568C1157Dframe20" style="opacity:1;fill:#ffffff" stroke="#000000" points="15.392,5.064 17.954,2.502 20.347,4.895 17.786,7.455     18.729,9.732 22.353,9.732 22.353,13.115 18.731,13.115 17.788,15.392 20.351,17.955 17.958,20.347 15.397,17.786 13.12,18.729     13.12,22.353 9.737,22.353 9.737,18.731 7.46,17.788 4.897,20.35 2.506,17.958 5.066,15.397 4.124,13.12 0.5,13.12 0.5,9.737     4.121,9.737 5.065,7.461 2.503,4.898 4.895,2.506 7.455,5.066 9.732,4.125 9.732,0.5 13.116,0.5 13.116,4.121 "/> 		<circle oryx:anchors="top left" id="_39D549BF-5356-47F4-9718-9A6568C1157Dframe21" style="opacity:1;fill:none" stroke="#000000" cx="11.427" cy="11.426" r="3.714"/> 		<polygon oryx:anchors="top left" id="_39D549BF-5356-47F4-9718-9A6568C1157Dframe22" style="opacity:1;fill:#ffffff" stroke="#000000" points="21.392,11.064 23.954,8.502 26.347,10.895 23.786,13.455     24.729,15.732 28.353,15.732 28.353,19.115 24.731,19.115 23.788,21.392 26.351,23.955 23.958,26.347 21.397,23.786 19.12,24.729     19.12,28.353 15.737,28.353 15.737,24.731 13.46,23.788 10.897,26.35 8.506,23.958 11.066,21.397 10.124,19.12 6.5,19.12     6.5,15.737 10.121,15.737 11.065,13.461 8.503,10.898 10.895,8.506 13.455,11.066 15.732,10.125 15.732,6.5 19.116,6.5     19.116,10.121 "/> 		<circle oryx:anchors="top left" id="_39D549BF-5356-47F4-9718-9A6568C1157Dframe23" style="opacity:1;fill:none;" stroke="#000000" cx="17.427" cy="17.426" r="3.714"/> 	</g> 	 	<g id="_39D549BF-5356-47F4-9718-9A6568C1157DsendTask" display="none"> 		<path id="_39D549BF-5356-47F4-9718-9A6568C1157Dstframe24" oryx:anchors="left top" stroke="#FFFFFF" fill="black" stroke-width="1" d="M8,11 L8,21 L24,21 L24,11 L16,17z"/> 		<path id="_39D549BF-5356-47F4-9718-9A6568C1157Dstframe25" oryx:anchors="left top" stroke="#FFFFFF" fill="black" stroke-width="1" d="M7,10 L16,17 L25 10z"/> 	</g> 	 	<g id="_39D549BF-5356-47F4-9718-9A6568C1157DreceiveTask" display="none"> 		<path id="_39D549BF-5356-47F4-9718-9A6568C1157Dframe26" oryx:anchors="left top" stroke="#000000" fill="none" stroke-width="1" d="M8,11 L8,21 L24,21 L24,11z M8,11 L16,17 L24,11"/> 	</g> 	 	<g id="_39D549BF-5356-47F4-9718-9A6568C1157Dnone" display="inherit"/>  	<g id="_39D549BF-5356-47F4-9718-9A6568C1157Dsequential" display="none">         <path oryx:anchors="bottom" fill="none" stroke="#000000" stroke-width="2" d="M46,76h10M46,72h10 M46,68h10" id="_39D549BF-5356-47F4-9718-9A6568C1157D__39D549BF-5356-47F4-9718-9A6568C1157D_20"/>     </g>   </g></g><g class="children" style="overflow:hidden"/><g class="edge"/></g><g class="controls"><g class="dockers"/><g class="magnets" transform="translate(340, 140)"><g pointer-events="all" display="none" transform="translate(-7, 12)"><circle cx="8" cy="8" r="4" stroke="none" fill="red" fill-opacity="0.3"/></g><g pointer-events="all" display="none" transform="translate(-7, 32)"><circle cx="8" cy="8" r="4" stroke="none" fill="red" fill-opacity="0.3"/></g><g pointer-events="all" display="none" transform="translate(-7, 52)"><circle cx="8" cy="8" r="4" stroke="none" fill="red" fill-opacity="0.3"/></g><g pointer-events="all" display="none" transform="translate(17, 71)"><circle cx="8" cy="8" r="4" stroke="none" fill="red" fill-opacity="0.3"/></g><g pointer-events="all" display="none" transform="translate(42, 71)"><circle cx="8" cy="8" r="4" stroke="none" fill="red" fill-opacity="0.3"/></g><g pointer-events="all" display="none" transform="translate(67, 71)"><circle cx="8" cy="8" r="4" stroke="none" fill="red" fill-opacity="0.3"/></g><g pointer-events="all" display="none" transform="translate(91, 12)"><circle cx="8" cy="8" r="4" stroke="none" fill="red" fill-opacity="0.3"/></g><g pointer-events="all" display="none" transform="translate(91, 32)"><circle cx="8" cy="8" r="4" stroke="none" fill="red" fill-opacity="0.3"/></g><g pointer-events="all" display="none" transform="translate(91, 52)"><circle cx="8" cy="8" r="4" stroke="none" fill="red" fill-opacity="0.3"/></g><g pointer-events="all" display="none" transform="translate(17, -7)"><circle cx="8" cy="8" r="4" stroke="none" fill="red" fill-opacity="0.3"/></g><g pointer-events="all" display="none" transform="translate(42, -7)"><circle cx="8" cy="8" r="4" stroke="none" fill="red" fill-opacity="0.3"/></g><g pointer-events="all" display="none" transform="translate(67, -7)"><circle cx="8" cy="8" r="4" stroke="none" fill="red" fill-opacity="0.3"/></g><g pointer-events="all" display="none" transform="translate(42, 32)"><circle cx="8" cy="8" r="4" stroke="none" fill="red" fill-opacity="0.3"/></g></g></g></g><g id="_B56194D1-10F6-43E3-BE3E-CD3501ED3D85" bpmn2nodeid="_CB5AAA01-C4CC-414A-9CB4-A9EB4B13DCB4"><g class="stencils" transform="translate(485, 166)"><g class="me"><g pointer-events="fill" id="_B56194D1-10F6-43E3-BE3E-CD3501ED3D85">      <defs id="_B56194D1-10F6-43E3-BE3E-CD3501ED3D85__B56194D1-10F6-43E3-BE3E-CD3501ED3D85_5"> 		<radialGradient id="_B56194D1-10F6-43E3-BE3E-CD3501ED3D85background" cx="10%" cy="10%" r="100%" fx="10%" fy="10%"> 			<stop offset="0%" stop-color="#ffffff" stop-opacity="1" id="_B56194D1-10F6-43E3-BE3E-CD3501ED3D85__B56194D1-10F6-43E3-BE3E-CD3501ED3D85_6"/> 			<stop id="_B56194D1-10F6-43E3-BE3E-CD3501ED3D85fill_el" offset="100%" stop-color="#ff6347" stop-opacity="1"/> 		</radialGradient> 	</defs> 	     <circle id="_B56194D1-10F6-43E3-BE3E-CD3501ED3D85bg_frame" cx="14" cy="14" r="14" stroke="#000000" fill="url(#_B56194D1-10F6-43E3-BE3E-CD3501ED3D85background) white" stroke-width="3"/> 	<text font-size="11" id="_B56194D1-10F6-43E3-BE3E-CD3501ED3D85text_name" x="14" y="30" oryx:align="top center" stroke="black" stroke-width="0pt" letter-spacing="-0.01px" fill="#000000" text-anchor="middle" transform="rotate(0 14 30)" visibility="inherit" oryx:fontSize="11"/>   </g></g><g class="children" style="overflow:hidden"/><g class="edge"/></g><g class="controls"><g class="dockers"/><g class="magnets" transform="translate(485, 166)"><g pointer-events="all" display="none" transform="translate(6, 6)"><circle cx="8" cy="8" r="4" stroke="none" fill="red" fill-opacity="0.3"/></g></g></g></g></g><g class="edge"><g id="_D57A4D8D-B6A6-419D-B9AB-8A5882835D4D" bpmn2nodeid="_C545BAC2-C09E-4777-ADF4-B0A64EDA356A"><g class="stencils"><g class="me"><g pointer-events="painted" bpmn2nodeid="_8F834AB6-1CBE-433A-9A10-BBE9835C0758"><path id="_D57A4D8D-B6A6-419D-B9AB-8A5882835D4D_1" d="M150.6083435402103 179.29052983908136L194.1572814597897 177.31103266091864 " stroke="#000000" fill="none" stroke-width="2" stroke-linecap="round" stroke-linejoin="round" marker-start="url(#_D57A4D8D-B6A6-419D-B9AB-8A5882835D4Dstart)" marker-end="url(#_D57A4D8D-B6A6-419D-B9AB-8A5882835D4Dend)"/></g><text id="_D57A4D8D-B6A6-419D-B9AB-8A5882835D4Dtext_name" font-size="12" x="164.6083435402103" y="165.29052983908136" oryx:edgePosition="startTop" stroke-width="0pt" letter-spacing="-0.01px" fill="#000000" text-anchor="start" transform="rotate(357.3974377975002 150.6083435402103 179.29052983908136)" visibility="inherit" oryx:fontSize="12"/></g><g class="children" style="overflow:hidden"/><g class="edge"/></g><g class="controls"><g class="dockers"/><g class="magnets"/></g></g><g id="_BAB8B36A-38D1-4B31-99A0-A65FDF2142B3" bpmn2nodeid="_73DE1075-F43F-4E6A-8876-0C00A9C15CFA"><g class="stencils"><g class="me"><g pointer-events="painted" bpmn2nodeid="_C5D59611-769D-4605-B1AC-9056D730A1AC"><path id="_BAB8B36A-38D1-4B31-99A0-A65FDF2142B3_1" d="M295.8431559993536 176.7532122758398L339.1568440006464 178.2467877241602 " stroke="#000000" fill="none" stroke-width="2" stroke-linecap="round" stroke-linejoin="round" marker-start="url(#_BAB8B36A-38D1-4B31-99A0-A65FDF2142B3start)" marker-end="url(#_BAB8B36A-38D1-4B31-99A0-A65FDF2142B3end)"/></g><text id="_BAB8B36A-38D1-4B31-99A0-A65FDF2142B3text_name" font-size="12" x="309.8431559993536" y="162.7532122758398" oryx:edgePosition="startTop" stroke-width="0pt" letter-spacing="-0.01px" fill="#000000" text-anchor="start" transform="rotate(1.9749340108819524 295.8431559993536 176.7532122758398)" visibility="inherit" oryx:fontSize="12"/></g><g class="children" style="overflow:hidden"/><g class="edge"/></g><g class="controls"><g class="dockers"/><g class="magnets"/></g></g><g id="_8B1C7299-C914-4B97-9509-7E6375B29F7D" bpmn2nodeid="_994A0126-156A-4F17-8BE8-14223C01E438"><g class="stencils"><g class="me"><g pointer-events="painted" bpmn2nodeid="_02089327-11FB-48A9-A1E8-4F7992469039"><path id="_8B1C7299-C914-4B97-9509-7E6375B29F7D_1" d="M440.390625 180L484.375 180 " stroke="#000000" fill="none" stroke-width="2" stroke-linecap="round" stroke-linejoin="round" marker-start="url(#_8B1C7299-C914-4B97-9509-7E6375B29F7Dstart)" marker-end="url(#_8B1C7299-C914-4B97-9509-7E6375B29F7Dend)"/></g><text id="_8B1C7299-C914-4B97-9509-7E6375B29F7Dtext_name" font-size="12" x="454.390625" y="166" oryx:edgePosition="startTop" stroke-width="0pt" letter-spacing="-0.01px" fill="#000000" text-anchor="start" transform="rotate(360 440.390625 180)" visibility="inherit" oryx:fontSize="12"/></g><g class="children" style="overflow:hidden"/><g class="edge"/></g><g class="controls"><g class="dockers"/><g class="magnets"/></g></g></g><text id="_545435DA-9556-4C46-BD89-5FBAEE26BF58" style="stroke-width:1;fill:rgb(177,194,214);font-family:arial;font-weight:bold" font-size="12" onclick="ORYX.Plugins.CanvasTitle.openTextualAnalysis()" onmouseover="ORYX.Plugins.CanvasTitle.addToolTip('_545435DA-9556-4C46-BD89-5FBAEE26BF58')" transform="translate(10, 20)">process v.1.0 (newformmodeler.process)</text></g></g></svg>