<svg xmlns="http://www.w3.org/2000/svg" xmlns:oryx="http://oryx-editor.org" id="_42D1A81E-FDA5-44E5-AC8B-C64B3CB01C9F" width="553" height="265" xmlns:xlink="http://www.w3.org/1999/xlink" xmlns:svg="http://www.w3.org/2000/svg"><defs><marker id="_2A20431E-AB4E-48A9-A0D2-CF1288258E78start" refX="1" refY="5" markerUnits="userSpaceOnUse" markerWidth="17" markerHeight="11" orient="auto" fill="#000000" stroke="#000000"> 	  		<path id="_2A20431E-AB4E-48A9-A0D2-CF1288258E78conditional" d="M 0 5 L 8 0 L 16 5 L 8 10 L 0 5" fill="white" stroke="#000000" stroke-width="1" display="none"/> 			<path id="_2A20431E-AB4E-48A9-A0D2-CF1288258E78default" d="M 5 0 L 11 10" fill="white" stroke="#000000" stroke-width="1" display="none"/> 	  	</marker><marker id="_2A20431E-AB4E-48A9-A0D2-CF1288258E78end" refX="15" refY="6" markerUnits="userSpaceOnUse" markerWidth="15" markerHeight="12" orient="auto" fill="#000000" stroke="#000000"> 	  		<path id="_2A20431E-AB4E-48A9-A0D2-CF1288258E78frame2" d="M 0 1 L 15 6 L 0 11z" fill="#000000" stroke="#000000" stroke-linejoin="round" stroke-width="2"/> 	  	</marker><marker id="_C6CA719E-2621-4D7C-B15B-52BFA670298Estart" refX="1" refY="5" markerUnits="userSpaceOnUse" markerWidth="17" markerHeight="11" orient="auto" fill="#000000" stroke="#000000"> 	  		<path id="_C6CA719E-2621-4D7C-B15B-52BFA670298Econditional" d="M 0 5 L 8 0 L 16 5 L 8 10 L 0 5" fill="white" stroke="#000000" stroke-width="1" display="none"/> 			<path id="_C6CA719E-2621-4D7C-B15B-52BFA670298Edefault" d="M 5 0 L 11 10" fill="white" stroke="#000000" stroke-width="1" display="none"/> 	  	</marker><marker id="_C6CA719E-2621-4D7C-B15B-52BFA670298Eend" refX="15" refY="6" markerUnits="userSpaceOnUse" markerWidth="15" markerHeight="12" orient="auto" fill="#000000" stroke="#000000"> 	  		<path id="_C6CA719E-2621-4D7C-B15B-52BFA670298Eframe2" d="M 0 1 L 15 6 L 0 11z" fill="#000000" stroke="#000000" stroke-linejoin="round" stroke-width="2"/> 	  	</marker><marker id="_E29E92B3-118F-4BA3-9DA0-D4DDBB61C935start" refX="1" refY="5" markerUnits="userSpaceOnUse" markerWidth="17" markerHeight="11" orient="auto" fill="#000000" stroke="#000000"> 	  		<path id="_E29E92B3-118F-4BA3-9DA0-D4DDBB61C935conditional" d="M 0 5 L 8 0 L 16 5 L 8 10 L 0 5" fill="white" stroke="#000000" stroke-width="1" display="none"/> 			<path id="_E29E92B3-118F-4BA3-9DA0-D4DDBB61C935default" d="M 5 0 L 11 10" fill="white" stroke="#000000" stroke-width="1" display="none"/> 	  	</marker><marker id="_E29E92B3-118F-4BA3-9DA0-D4DDBB61C935end" refX="15" refY="6" markerUnits="userSpaceOnUse" markerWidth="15" markerHeight="12" orient="auto" fill="#000000" stroke="#000000"> 	  		<path id="_E29E92B3-118F-4BA3-9DA0-D4DDBB61C935frame2" d="M 0 1 L 15 6 L 0 11z" fill="#000000" stroke="#000000" stroke-linejoin="round" stroke-width="2"/> 	  	</marker></defs><g stroke="none" font-family="Verdana, sans-serif" font-size-adjust="none" font-style="normal" font-variant="normal" font-weight="normal" line-heigth="normal" font-size="12"><g class="stencils" transform="translate(15, 16)"><g class="me"/><g class="children"><g id="_E90E14F0-8A78-4625-9D45-24B102D02E6E" bpmn2nodeid="processStartEvent"><g class="stencils" transform="translate(120, 165)"><g class="me"><g pointer-events="fill" id="_E90E14F0-8A78-4625-9D45-24B102D02E6E">        <defs id="_E90E14F0-8A78-4625-9D45-24B102D02E6E__E90E14F0-8A78-4625-9D45-24B102D02E6E_5"> 		<radialGradient id="_E90E14F0-8A78-4625-9D45-24B102D02E6Ebackground" cx="10%" cy="10%" r="100%" fx="10%" fy="10%"> 			<stop offset="0%" stop-color="#ffffff" stop-opacity="1" id="_E90E14F0-8A78-4625-9D45-24B102D02E6E__E90E14F0-8A78-4625-9D45-24B102D02E6E_6"/> 			<stop id="_E90E14F0-8A78-4625-9D45-24B102D02E6Efill_el" offset="100%" stop-color="#9acd32" stop-opacity="1"/> 		</radialGradient> 	</defs> 	     <circle id="_E90E14F0-8A78-4625-9D45-24B102D02E6Ebg_frame" cx="15" cy="15" r="15" stroke="#000000" fill="url(#_E90E14F0-8A78-4625-9D45-24B102D02E6Ebackground) white" stroke-width="1" style="stroke-dasharray: 5.5, 3"/>      <circle id="_E90E14F0-8A78-4625-9D45-24B102D02E6Eframe" cx="15" cy="15" r="15" stroke="#000000" fill="none" stroke-width="1" display="inherit"/>  	<text font-size="11" id="_E90E14F0-8A78-4625-9D45-24B102D02E6Etext_name" x="15" y="32" oryx:align="top center" stroke="black" stroke-width="0pt" letter-spacing="-0.01px" fill="#000000" text-anchor="middle" transform="rotate(0 15 32)" visibility="inherit" oryx:fontSize="11"/>   </g></g><g class="children" style="overflow:hidden"/><g class="edge"/></g><g class="controls"><g class="dockers"/><g class="magnets" transform="translate(120, 165)"><g pointer-events="all" display="none" transform="translate(7, 7)"><circle cx="8" cy="8" r="4" stroke="none" fill="red" fill-opacity="0.3"/></g></g></g></g><g id="_19B8119F-2C4B-4F20-8DDB-43FA7A974128" bpmn2nodeid="_4E716A3E-F1FD-48E6-9840-764B997DB59F"><g class="stencils" transform="translate(195, 135)"><g class="me"><g pointer-events="fill" oryx:minimumSize="50 40" id="_19B8119F-2C4B-4F20-8DDB-43FA7A974128">   	<defs id="_19B8119F-2C4B-4F20-8DDB-43FA7A974128__19B8119F-2C4B-4F20-8DDB-43FA7A974128_17"> 		<radialGradient id="_19B8119F-2C4B-4F20-8DDB-43FA7A974128background" cx="10%" cy="10%" r="100%" fx="10%" fy="10%"> 			<stop offset="0%" stop-color="#ffffff" stop-opacity="1" id="_19B8119F-2C4B-4F20-8DDB-43FA7A974128__19B8119F-2C4B-4F20-8DDB-43FA7A974128_18"/> 			<stop id="_19B8119F-2C4B-4F20-8DDB-43FA7A974128fill_el" offset="100%" stop-color="#fafad2" stop-opacity="1"/> 		</radialGradient> 		<radialGradient id="_19B8119F-2C4B-4F20-8DDB-43FA7A974128borderbackground" cx="10%" cy="10%" r="100%" fx="10%" fy="10%"> 			<stop offset="0%" stop-color="#ffffff" stop-opacity="1" id="_19B8119F-2C4B-4F20-8DDB-43FA7A974128__19B8119F-2C4B-4F20-8DDB-43FA7A974128_19"/> 			<stop id="_19B8119F-2C4B-4F20-8DDB-43FA7A974128fill_border" offset="100%" stop-color="#000000" stop-opacity="1" stroke="#000000"/> 		</radialGradient> 	</defs> 	 	<rect id="_19B8119F-2C4B-4F20-8DDB-43FA7A974128text_frame" oryx:anchors="bottom top right left" x="1" y="1" width="94" height="79" rx="10" ry="10" stroke="none" stroke-width="0" fill="none"/> 	<rect id="_19B8119F-2C4B-4F20-8DDB-43FA7A974128bg_frame" oryx:resize="vertical horizontal" x="0" y="0" width="100" height="80" rx="10" ry="10" stroke="#000000" stroke-width="1" fill="url(#_19B8119F-2C4B-4F20-8DDB-43FA7A974128background) #ffffcc"/> 		<text font-size="12" id="_19B8119F-2C4B-4F20-8DDB-43FA7A974128text_name" x="50" y="40" oryx:align="middle center" oryx:fittoelem="text_frame" stroke="black" text-anchor="middle" stroke-width="0pt" letter-spacing="-0.01px" fill="#000000" transform="rotate(0 50 40)" visibility="inherit" oryx:fontSize="12"><tspan x="50" y="40" dy="5">outputTask</tspan></text>     <g id="_19B8119F-2C4B-4F20-8DDB-43FA7A974128manualTask" transform="scale(0.7,0.7) translate(8,8)" display="none">     	<path oryx:anchors="top left" id="_19B8119F-2C4B-4F20-8DDB-43FA7A974128frame" style="opacity:1;fill:none;fill-opacity:1;stroke-width:1" d="M0.5,3.751l4.083-3.25c0,0,11.166,0.083,12.083,0.083s-2.417,2.917-1.5,2.917     s11.667,0,12.584,0c1.166,1.708-0.168,3.167-0.834,3.667s0.875,1.917-1,4.417c-0.75,0.25,0.75,1.875-1.333,3.333     c-1.167,0.583,0.583,1.542-1.25,2.833c-1.167,0-20.833,0.083-20.833,0.083l-2-1.333V3.751z" stroke="#000000"/> 		<path id="_19B8119F-2C4B-4F20-8DDB-43FA7A974128frame2" oryx:anchors="top left" style="opacity:1;fill:none;stroke-width:2" d="M 13.5 7 L 27 7" stroke="#000000"/> 		<path id="_19B8119F-2C4B-4F20-8DDB-43FA7A974128frame3" oryx:anchors="top left" style="opacity:1;fill:none;stroke-width:2" d="M 13.5 11 L 26 11" stroke="#000000"/> 		<path id="_19B8119F-2C4B-4F20-8DDB-43FA7A974128frame4" oryx:anchors="top left" style="opacity:1;fill:none;stroke-width:1.5" d="M 14 14.5 L 25 14.5" stroke="#000000"/> 		<path id="_19B8119F-2C4B-4F20-8DDB-43FA7A974128frame5" oryx:anchors="top left" style="opacity:1;fill:none;stroke-width:1.5" d="M 8.2 3.1 L 15 3.1" stroke="#000000"/> 	</g> 	 	<g id="_19B8119F-2C4B-4F20-8DDB-43FA7A974128businessRuleTask" transform="scale(0.7,0.7) translate(8,8)" display="none"> 		<rect id="_19B8119F-2C4B-4F20-8DDB-43FA7A974128frame6" oryx:anchors="top left" x="0" y="0" width="22" height="4" style="opacity:1;fill:#B3B1B3;fill-opacity:1;" stroke="#000000"/> 		<rect id="_19B8119F-2C4B-4F20-8DDB-43FA7A974128frame7" oryx:anchors="top left" x="0" y="4" style="opacity:1;fill:none;" width="22" height="12" stroke="#000000"/> 		<path id="_19B8119F-2C4B-4F20-8DDB-43FA7A974128frame8" oryx:anchors="top left" style="opacity:1;fill:none;" d="M 0 10 L 22 10" stroke="#000000"/> 		<path id="_19B8119F-2C4B-4F20-8DDB-43FA7A974128frame9" oryx:anchors="top left" style="opacity:1; fill:none;" d="M 7 4 L 7 16" stroke="#000000"/> 	</g> 	 	<g id="_19B8119F-2C4B-4F20-8DDB-43FA7A974128scriptTask" transform="scale(0.7,0.7) translate(8,8)" display="none"> 		<path oryx:anchors="top left" id="_19B8119F-2C4B-4F20-8DDB-43FA7A974128frame10" style="opacity:1;fill:none;" stroke="#000000" d="M6.402,0.5h14.5c0,0-5.833,2.833-5.833,5.583s4.417,6,4.417,9.167    s-4.167,5.083-4.167,5.083H0.235c0,0,5-2.667,5-5s-4.583-6.75-4.583-9.25S6.402,0.5,6.402,0.5z"/> 		<path oryx:anchors="top left" id="_19B8119F-2C4B-4F20-8DDB-43FA7A974128frame11" style="opacity:1;fill:none;stroke-width:1.5" d="M 3.5 4.5 L 13.5 4.5" stroke="#000000"/> 		<path oryx:anchors="top left" id="_19B8119F-2C4B-4F20-8DDB-43FA7A974128frame12" style="opacity:1;fill:none;stroke-width:1.5" d="M 3.8 8.5 L 13.8 8.5" stroke="#000000"/> 		<path oryx:anchors="top left" id="_19B8119F-2C4B-4F20-8DDB-43FA7A974128frame13" style="opacity:1;fill:none;stroke-width:1.5" d="M 6.3 12.5 L 16.3 12.5" stroke="#000000"/> 		<path oryx:anchors="top left" id="_19B8119F-2C4B-4F20-8DDB-43FA7A974128frame14" style="opacity:1;fill:none;stroke-width:1.5" d="M 6.5 16.5 L 16.5 16.5" stroke="#000000"/> 	</g> 	 	<g id="_19B8119F-2C4B-4F20-8DDB-43FA7A974128userTask" transform="scale(0.7,0.7) translate(8,8)" display="inherit"> 		<path id="_19B8119F-2C4B-4F20-8DDB-43FA7A974128frame15" oryx:anchors="top left" style="opacity:1;fill:#F4F6F7" stroke="#000000" d="M0.585,24.167h24.083v-7.833c0,0-2.333-3.917-7.083-5.167h-9.25    c-4.417,1.333-7.833,5.75-7.833,5.75L0.585,24.167z"/> 		<path id="_19B8119F-2C4B-4F20-8DDB-43FA7A974128frame16" oryx:anchors="top left" style="opacity:1;fill:none" d="M 6 20 L 6 24" stroke="#000000"/> 		<path id="_19B8119F-2C4B-4F20-8DDB-43FA7A974128frame17" oryx:anchors="top left" style="opacity:1;fill:none" d="M 20 20 L 20 24" stroke="#000000"/> 		<circle id="_19B8119F-2C4B-4F20-8DDB-43FA7A974128frame18" oryx:anchors="top left" fill="black" cx="13.002" cy="5.916" r="5.417" stroke="#000000"/> 		<path id="_19B8119F-2C4B-4F20-8DDB-43FA7A974128frame19" oryx:anchors="top left" style="opacity:1;fill:#F0EFF0;" stroke="#000000" d="M8.043,7.083c0,0,2.814-2.426,5.376-1.807s4.624-0.693,4.624-0.693    c0.25,1.688,0.042,3.75-1.458,5.584c0,0,1.083,0.75,1.083,1.5s0.125,1.875-1,3s-5.5,1.25-6.75,0S8.668,12.834,8.668,12    s0.583-1.25,1.25-1.917C8.835,9.5,7.419,7.708,8.043,7.083z"/> 	</g> 	 	<g id="_19B8119F-2C4B-4F20-8DDB-43FA7A974128serviceTask" transform="scale(0.7,0.7) translate(8,8)" display="none"> 		<polygon oryx:anchors="top left" id="_19B8119F-2C4B-4F20-8DDB-43FA7A974128frame20" style="opacity:1;fill:#ffffff" stroke="#000000" points="15.392,5.064 17.954,2.502 20.347,4.895 17.786,7.455     18.729,9.732 22.353,9.732 22.353,13.115 18.731,13.115 17.788,15.392 20.351,17.955 17.958,20.347 15.397,17.786 13.12,18.729     13.12,22.353 9.737,22.353 9.737,18.731 7.46,17.788 4.897,20.35 2.506,17.958 5.066,15.397 4.124,13.12 0.5,13.12 0.5,9.737     4.121,9.737 5.065,7.461 2.503,4.898 4.895,2.506 7.455,5.066 9.732,4.125 9.732,0.5 13.116,0.5 13.116,4.121 "/> 		<circle oryx:anchors="top left" id="_19B8119F-2C4B-4F20-8DDB-43FA7A974128frame21" style="opacity:1;fill:none" stroke="#000000" cx="11.427" cy="11.426" r="3.714"/> 		<polygon oryx:anchors="top left" id="_19B8119F-2C4B-4F20-8DDB-43FA7A974128frame22" style="opacity:1;fill:#ffffff" stroke="#000000" points="21.392,11.064 23.954,8.502 26.347,10.895 23.786,13.455     24.729,15.732 28.353,15.732 28.353,19.115 24.731,19.115 23.788,21.392 26.351,23.955 23.958,26.347 21.397,23.786 19.12,24.729     19.12,28.353 15.737,28.353 15.737,24.731 13.46,23.788 10.897,26.35 8.506,23.958 11.066,21.397 10.124,19.12 6.5,19.12     6.5,15.737 10.121,15.737 11.065,13.461 8.503,10.898 10.895,8.506 13.455,11.066 15.732,10.125 15.732,6.5 19.116,6.5     19.116,10.121 "/> 		<circle oryx:anchors="top left" id="_19B8119F-2C4B-4F20-8DDB-43FA7A974128frame23" style="opacity:1;fill:none;" stroke="#000000" cx="17.427" cy="17.426" r="3.714"/> 	</g> 	 	<g id="_19B8119F-2C4B-4F20-8DDB-43FA7A974128sendTask" display="none"> 		<path id="_19B8119F-2C4B-4F20-8DDB-43FA7A974128stframe24" oryx:anchors="left top" stroke="#FFFFFF" fill="black" stroke-width="1" d="M8,11 L8,21 L24,21 L24,11 L16,17z"/> 		<path id="_19B8119F-2C4B-4F20-8DDB-43FA7A974128stframe25" oryx:anchors="left top" stroke="#FFFFFF" fill="black" stroke-width="1" d="M7,10 L16,17 L25 10z"/> 	</g> 	 	<g id="_19B8119F-2C4B-4F20-8DDB-43FA7A974128receiveTask" display="none"> 		<path id="_19B8119F-2C4B-4F20-8DDB-43FA7A974128frame26" oryx:anchors="left top" stroke="#000000" fill="none" stroke-width="1" d="M8,11 L8,21 L24,21 L24,11z M8,11 L16,17 L24,11"/> 	</g> 	 	<g id="_19B8119F-2C4B-4F20-8DDB-43FA7A974128none" display="inherit"/>  	<g id="_19B8119F-2C4B-4F20-8DDB-43FA7A974128sequential" display="none">         <path oryx:anchors="bottom" fill="none" stroke="#000000" stroke-width="2" d="M46,76h10M46,72h10 M46,68h10" id="_19B8119F-2C4B-4F20-8DDB-43FA7A974128__19B8119F-2C4B-4F20-8DDB-43FA7A974128_20"/>     </g>   </g></g><g class="children" style="overflow:hidden"/><g class="edge"/></g><g class="controls"><g class="dockers"/><g class="magnets" transform="translate(195, 135)"><g pointer-events="all" display="none" transform="translate(-7, 12)"><circle cx="8" cy="8" r="4" stroke="none" fill="red" fill-opacity="0.3"/></g><g pointer-events="all" display="none" transform="translate(-7, 32)"><circle cx="8" cy="8" r="4" stroke="none" fill="red" fill-opacity="0.3"/></g><g pointer-events="all" display="none" transform="translate(-7, 52)"><circle cx="8" cy="8" r="4" stroke="none" fill="red" fill-opacity="0.3"/></g><g pointer-events="all" display="none" transform="translate(17, 71)"><circle cx="8" cy="8" r="4" stroke="none" fill="red" fill-opacity="0.3"/></g><g pointer-events="all" display="none" transform="translate(42, 71)"><circle cx="8" cy="8" r="4" stroke="none" fill="red" fill-opacity="0.3"/></g><g pointer-events="all" display="none" transform="translate(67, 71)"><circle cx="8" cy="8" r="4" stroke="none" fill="red" fill-opacity="0.3"/></g><g pointer-events="all" display="none" transform="translate(91, 12)"><circle cx="8" cy="8" r="4" stroke="none" fill="red" fill-opacity="0.3"/></g><g pointer-events="all" display="none" transform="translate(91, 32)"><circle cx="8" cy="8" r="4" stroke="none" fill="red" fill-opacity="0.3"/></g><g pointer-events="all" display="none" transform="translate(91, 52)"><circle cx="8" cy="8" r="4" stroke="none" fill="red" fill-opacity="0.3"/></g><g pointer-events="all" display="none" transform="translate(17, -7)"><circle cx="8" cy="8" r="4" stroke="none" fill="red" fill-opacity="0.3"/></g><g pointer-events="all" display="none" transform="translate(42, -7)"><circle cx="8" cy="8" r="4" stroke="none" fill="red" fill-opacity="0.3"/></g><g pointer-events="all" display="none" transform="translate(67, -7)"><circle cx="8" cy="8" r="4" stroke="none" fill="red" fill-opacity="0.3"/></g><g pointer-events="all" display="none" transform="translate(42, 32)"><circle cx="8" cy="8" r="4" stroke="none" fill="red" fill-opacity="0.3"/></g></g></g></g><g id="_F89D8749-3817-48F4-98D1-0291643420DF" bpmn2nodeid="_000BF4C4-4672-4CB5-B009-A6B8A8A52EB8"><g class="stencils" transform="translate(340, 140)"><g class="me"><g pointer-events="fill" oryx:minimumSize="50 40" id="_F89D8749-3817-48F4-98D1-0291643420DF">   	<defs id="_F89D8749-3817-48F4-98D1-0291643420DF__F89D8749-3817-48F4-98D1-0291643420DF_17"> 		<radialGradient id="_F89D8749-3817-48F4-98D1-0291643420DFbackground" cx="10%" cy="10%" r="100%" fx="10%" fy="10%"> 			<stop offset="0%" stop-color="#ffffff" stop-opacity="1" id="_F89D8749-3817-48F4-98D1-0291643420DF__F89D8749-3817-48F4-98D1-0291643420DF_18"/> 			<stop id="_F89D8749-3817-48F4-98D1-0291643420DFfill_el" offset="100%" stop-color="#fafad2" stop-opacity="1"/> 		</radialGradient> 		<radialGradient id="_F89D8749-3817-48F4-98D1-0291643420DFborderbackground" cx="10%" cy="10%" r="100%" fx="10%" fy="10%"> 			<stop offset="0%" stop-color="#ffffff" stop-opacity="1" id="_F89D8749-3817-48F4-98D1-0291643420DF__F89D8749-3817-48F4-98D1-0291643420DF_19"/> 			<stop id="_F89D8749-3817-48F4-98D1-0291643420DFfill_border" offset="100%" stop-color="#000000" stop-opacity="1" stroke="#000000"/> 		</radialGradient> 	</defs> 	 	<rect id="_F89D8749-3817-48F4-98D1-0291643420DFtext_frame" oryx:anchors="bottom top right left" x="1" y="1" width="94" height="79" rx="10" ry="10" stroke="none" stroke-width="0" fill="none"/> 	<rect id="_F89D8749-3817-48F4-98D1-0291643420DFbg_frame" oryx:resize="vertical horizontal" x="0" y="0" width="100" height="80" rx="10" ry="10" stroke="#000000" stroke-width="1" fill="url(#_F89D8749-3817-48F4-98D1-0291643420DFbackground) #ffffcc"/> 		<text font-size="12" id="_F89D8749-3817-48F4-98D1-0291643420DFtext_name" x="50" y="40" oryx:align="middle center" oryx:fittoelem="text_frame" stroke="black" text-anchor="middle" stroke-width="0pt" letter-spacing="-0.01px" fill="#000000" transform="rotate(0 50 40)" visibility="inherit" oryx:fontSize="12"><tspan x="50" y="40" dy="5">inputTask</tspan></text>     <g id="_F89D8749-3817-48F4-98D1-0291643420DFmanualTask" transform="scale(0.7,0.7) translate(8,8)" display="none">     	<path oryx:anchors="top left" id="_F89D8749-3817-48F4-98D1-0291643420DFframe" style="opacity:1;fill:none;fill-opacity:1;stroke-width:1" d="M0.5,3.751l4.083-3.25c0,0,11.166,0.083,12.083,0.083s-2.417,2.917-1.5,2.917     s11.667,0,12.584,0c1.166,1.708-0.168,3.167-0.834,3.667s0.875,1.917-1,4.417c-0.75,0.25,0.75,1.875-1.333,3.333     c-1.167,0.583,0.583,1.542-1.25,2.833c-1.167,0-20.833,0.083-20.833,0.083l-2-1.333V3.751z" stroke="#000000"/> 		<path id="_F89D8749-3817-48F4-98D1-0291643420DFframe2" oryx:anchors="top left" style="opacity:1;fill:none;stroke-width:2" d="M 13.5 7 L 27 7" stroke="#000000"/> 		<path id="_F89D8749-3817-48F4-98D1-0291643420DFframe3" oryx:anchors="top left" style="opacity:1;fill:none;stroke-width:2" d="M 13.5 11 L 26 11" stroke="#000000"/> 		<path id="_F89D8749-3817-48F4-98D1-0291643420DFframe4" oryx:anchors="top left" style="opacity:1;fill:none;stroke-width:1.5" d="M 14 14.5 L 25 14.5" stroke="#000000"/> 		<path id="_F89D8749-3817-48F4-98D1-0291643420DFframe5" oryx:anchors="top left" style="opacity:1;fill:none;stroke-width:1.5" d="M 8.2 3.1 L 15 3.1" stroke="#000000"/> 	</g> 	 	<g id="_F89D8749-3817-48F4-98D1-0291643420DFbusinessRuleTask" transform="scale(0.7,0.7) translate(8,8)" display="none"> 		<rect id="_F89D8749-3817-48F4-98D1-0291643420DFframe6" oryx:anchors="top left" x="0" y="0" width="22" height="4" style="opacity:1;fill:#B3B1B3;fill-opacity:1;" stroke="#000000"/> 		<rect id="_F89D8749-3817-48F4-98D1-0291643420DFframe7" oryx:anchors="top left" x="0" y="4" style="opacity:1;fill:none;" width="22" height="12" stroke="#000000"/> 		<path id="_F89D8749-3817-48F4-98D1-0291643420DFframe8" oryx:anchors="top left" style="opacity:1;fill:none;" d="M 0 10 L 22 10" stroke="#000000"/> 		<path id="_F89D8749-3817-48F4-98D1-0291643420DFframe9" oryx:anchors="top left" style="opacity:1; fill:none;" d="M 7 4 L 7 16" stroke="#000000"/> 	</g> 	 	<g id="_F89D8749-3817-48F4-98D1-0291643420DFscriptTask" transform="scale(0.7,0.7) translate(8,8)" display="none"> 		<path oryx:anchors="top left" id="_F89D8749-3817-48F4-98D1-0291643420DFframe10" style="opacity:1;fill:none;" stroke="#000000" d="M6.402,0.5h14.5c0,0-5.833,2.833-5.833,5.583s4.417,6,4.417,9.167    s-4.167,5.083-4.167,5.083H0.235c0,0,5-2.667,5-5s-4.583-6.75-4.583-9.25S6.402,0.5,6.402,0.5z"/> 		<path oryx:anchors="top left" id="_F89D8749-3817-48F4-98D1-0291643420DFframe11" style="opacity:1;fill:none;stroke-width:1.5" d="M 3.5 4.5 L 13.5 4.5" stroke="#000000"/> 		<path oryx:anchors="top left" id="_F89D8749-3817-48F4-98D1-0291643420DFframe12" style="opacity:1;fill:none;stroke-width:1.5" d="M 3.8 8.5 L 13.8 8.5" stroke="#000000"/> 		<path oryx:anchors="top left" id="_F89D8749-3817-48F4-98D1-0291643420DFframe13" style="opacity:1;fill:none;stroke-width:1.5" d="M 6.3 12.5 L 16.3 12.5" stroke="#000000"/> 		<path oryx:anchors="top left" id="_F89D8749-3817-48F4-98D1-0291643420DFframe14" style="opacity:1;fill:none;stroke-width:1.5" d="M 6.5 16.5 L 16.5 16.5" stroke="#000000"/> 	</g> 	 	<g id="_F89D8749-3817-48F4-98D1-0291643420DFuserTask" transform="scale(0.7,0.7) translate(8,8)" display="inherit"> 		<path id="_F89D8749-3817-48F4-98D1-0291643420DFframe15" oryx:anchors="top left" style="opacity:1;fill:#F4F6F7" stroke="#000000" d="M0.585,24.167h24.083v-7.833c0,0-2.333-3.917-7.083-5.167h-9.25    c-4.417,1.333-7.833,5.75-7.833,5.75L0.585,24.167z"/> 		<path id="_F89D8749-3817-48F4-98D1-0291643420DFframe16" oryx:anchors="top left" style="opacity:1;fill:none" d="M 6 20 L 6 24" stroke="#000000"/> 		<path id="_F89D8749-3817-48F4-98D1-0291643420DFframe17" oryx:anchors="top left" style="opacity:1;fill:none" d="M 20 20 L 20 24" stroke="#000000"/> 		<circle id="_F89D8749-3817-48F4-98D1-0291643420DFframe18" oryx:anchors="top left" fill="black" cx="13.002" cy="5.916" r="5.417" stroke="#000000"/> 		<path id="_F89D8749-3817-48F4-98D1-0291643420DFframe19" oryx:anchors="top left" style="opacity:1;fill:#F0EFF0;" stroke="#000000" d="M8.043,7.083c0,0,2.814-2.426,5.376-1.807s4.624-0.693,4.624-0.693    c0.25,1.688,0.042,3.75-1.458,5.584c0,0,1.083,0.75,1.083,1.5s0.125,1.875-1,3s-5.5,1.25-6.75,0S8.668,12.834,8.668,12    s0.583-1.25,1.25-1.917C8.835,9.5,7.419,7.708,8.043,7.083z"/> 	</g> 	 	<g id="_F89D8749-3817-48F4-98D1-0291643420DFserviceTask" transform="scale(0.7,0.7) translate(8,8)" display="none"> 		<polygon oryx:anchors="top left" id="_F89D8749-3817-48F4-98D1-0291643420DFframe20" style="opacity:1;fill:#ffffff" stroke="#000000" points="15.392,5.064 17.954,2.502 20.347,4.895 17.786,7.455     18.729,9.732 22.353,9.732 22.353,13.115 18.731,13.115 17.788,15.392 20.351,17.955 17.958,20.347 15.397,17.786 13.12,18.729     13.12,22.353 9.737,22.353 9.737,18.731 7.46,17.788 4.897,20.35 2.506,17.958 5.066,15.397 4.124,13.12 0.5,13.12 0.5,9.737     4.121,9.737 5.065,7.461 2.503,4.898 4.895,2.506 7.455,5.066 9.732,4.125 9.732,0.5 13.116,0.5 13.116,4.121 "/> 		<circle oryx:anchors="top left" id="_F89D8749-3817-48F4-98D1-0291643420DFframe21" style="opacity:1;fill:none" stroke="#000000" cx="11.427" cy="11.426" r="3.714"/> 		<polygon oryx:anchors="top left" id="_F89D8749-3817-48F4-98D1-0291643420DFframe22" style="opacity:1;fill:#ffffff" stroke="#000000" points="21.392,11.064 23.954,8.502 26.347,10.895 23.786,13.455     24.729,15.732 28.353,15.732 28.353,19.115 24.731,19.115 23.788,21.392 26.351,23.955 23.958,26.347 21.397,23.786 19.12,24.729     19.12,28.353 15.737,28.353 15.737,24.731 13.46,23.788 10.897,26.35 8.506,23.958 11.066,21.397 10.124,19.12 6.5,19.12     6.5,15.737 10.121,15.737 11.065,13.461 8.503,10.898 10.895,8.506 13.455,11.066 15.732,10.125 15.732,6.5 19.116,6.5     19.116,10.121 "/> 		<circle oryx:anchors="top left" id="_F89D8749-3817-48F4-98D1-0291643420DFframe23" style="opacity:1;fill:none;" stroke="#000000" cx="17.427" cy="17.426" r="3.714"/> 	</g> 	 	<g id="_F89D8749-3817-48F4-98D1-0291643420DFsendTask" display="none"> 		<path id="_F89D8749-3817-48F4-98D1-0291643420DFstframe24" oryx:anchors="left top" stroke="#FFFFFF" fill="black" stroke-width="1" d="M8,11 L8,21 L24,21 L24,11 L16,17z"/> 		<path id="_F89D8749-3817-48F4-98D1-0291643420DFstframe25" oryx:anchors="left top" stroke="#FFFFFF" fill="black" stroke-width="1" d="M7,10 L16,17 L25 10z"/> 	</g> 	 	<g id="_F89D8749-3817-48F4-98D1-0291643420DFreceiveTask" display="none"> 		<path id="_F89D8749-3817-48F4-98D1-0291643420DFframe26" oryx:anchors="left top" stroke="#000000" fill="none" stroke-width="1" d="M8,11 L8,21 L24,21 L24,11z M8,11 L16,17 L24,11"/> 	</g> 	 	<g id="_F89D8749-3817-48F4-98D1-0291643420DFnone" display="inherit"/>  	<g id="_F89D8749-3817-48F4-98D1-0291643420DFsequential" display="none">         <path oryx:anchors="bottom" fill="none" stroke="#000000" stroke-width="2" d="M46,76h10M46,72h10 M46,68h10" id="_F89D8749-3817-48F4-98D1-0291643420DF__F89D8749-3817-48F4-98D1-0291643420DF_20"/>     </g>   </g></g><g class="children" style="overflow:hidden"/><g class="edge"/></g><g class="controls"><g class="dockers"/><g class="magnets" transform="translate(340, 140)"><g pointer-events="all" display="none" transform="translate(-7, 12)"><circle cx="8" cy="8" r="4" stroke="none" fill="red" fill-opacity="0.3"/></g><g pointer-events="all" display="none" transform="translate(-7, 32)"><circle cx="8" cy="8" r="4" stroke="none" fill="red" fill-opacity="0.3"/></g><g pointer-events="all" display="none" transform="translate(-7, 52)"><circle cx="8" cy="8" r="4" stroke="none" fill="red" fill-opacity="0.3"/></g><g pointer-events="all" display="none" transform="translate(17, 71)"><circle cx="8" cy="8" r="4" stroke="none" fill="red" fill-opacity="0.3"/></g><g pointer-events="all" display="none" transform="translate(42, 71)"><circle cx="8" cy="8" r="4" stroke="none" fill="red" fill-opacity="0.3"/></g><g pointer-events="all" display="none" transform="translate(67, 71)"><circle cx="8" cy="8" r="4" stroke="none" fill="red" fill-opacity="0.3"/></g><g pointer-events="all" display="none" transform="translate(91, 12)"><circle cx="8" cy="8" r="4" stroke="none" fill="red" fill-opacity="0.3"/></g><g pointer-events="all" display="none" transform="translate(91, 32)"><circle cx="8" cy="8" r="4" stroke="none" fill="red" fill-opacity="0.3"/></g><g pointer-events="all" display="none" transform="translate(91, 52)"><circle cx="8" cy="8" r="4" stroke="none" fill="red" fill-opacity="0.3"/></g><g pointer-events="all" display="none" transform="translate(17, -7)"><circle cx="8" cy="8" r="4" stroke="none" fill="red" fill-opacity="0.3"/></g><g pointer-events="all" display="none" transform="translate(42, -7)"><circle cx="8" cy="8" r="4" stroke="none" fill="red" fill-opacity="0.3"/></g><g pointer-events="all" display="none" transform="translate(67, -7)"><circle cx="8" cy="8" r="4" stroke="none" fill="red" fill-opacity="0.3"/></g><g pointer-events="all" display="none" transform="translate(42, 32)"><circle cx="8" cy="8" r="4" stroke="none" fill="red" fill-opacity="0.3"/></g></g></g></g><g id="_738977F3-B57A-4E71-9A17-167304B28D85" bpmn2nodeid="_CB5AAA01-C4CC-414A-9CB4-A9EB4B13DCB4"><g class="stencils" transform="translate(485, 166)"><g class="me"><g pointer-events="fill" id="_738977F3-B57A-4E71-9A17-167304B28D85">      <defs id="_738977F3-B57A-4E71-9A17-167304B28D85__738977F3-B57A-4E71-9A17-167304B28D85_5"> 		<radialGradient id="_738977F3-B57A-4E71-9A17-167304B28D85background" cx="10%" cy="10%" r="100%" fx="10%" fy="10%"> 			<stop offset="0%" stop-color="#ffffff" stop-opacity="1" id="_738977F3-B57A-4E71-9A17-167304B28D85__738977F3-B57A-4E71-9A17-167304B28D85_6"/> 			<stop id="_738977F3-B57A-4E71-9A17-167304B28D85fill_el" offset="100%" stop-color="#ff6347" stop-opacity="1"/> 		</radialGradient> 	</defs> 	     <circle id="_738977F3-B57A-4E71-9A17-167304B28D85bg_frame" cx="14" cy="14" r="14" stroke="#000000" fill="url(#_738977F3-B57A-4E71-9A17-167304B28D85background) white" stroke-width="3"/> 	<text font-size="11" id="_738977F3-B57A-4E71-9A17-167304B28D85text_name" x="14" y="30" oryx:align="top center" stroke="black" stroke-width="0pt" letter-spacing="-0.01px" fill="#000000" text-anchor="middle" transform="rotate(0 14 30)" visibility="inherit" oryx:fontSize="11"/>   </g></g><g class="children" style="overflow:hidden"/><g class="edge"/></g><g class="controls"><g class="dockers"/><g class="magnets" transform="translate(485, 166)"><g pointer-events="all" display="none" transform="translate(6, 6)"><circle cx="8" cy="8" r="4" stroke="none" fill="red" fill-opacity="0.3"/></g></g></g></g></g><g class="edge"><g id="_2A20431E-AB4E-48A9-A0D2-CF1288258E78" bpmn2nodeid="_C545BAC2-C09E-4777-ADF4-B0A64EDA356A"><g class="stencils"><g class="me"><g pointer-events="painted" bpmn2nodeid="_6DE11757-8385-4943-AAA8-A4C02123F5B2"><path id="_2A20431E-AB4E-48A9-A0D2-CF1288258E78_1" d="M150.6083435402103 179.29052983908136L194.1572814597897 177.31103266091864 " stroke="#000000" fill="none" stroke-width="2" stroke-linecap="round" stroke-linejoin="round" marker-start="url(#_2A20431E-AB4E-48A9-A0D2-CF1288258E78start)" marker-end="url(#_2A20431E-AB4E-48A9-A0D2-CF1288258E78end)"/></g><text id="_2A20431E-AB4E-48A9-A0D2-CF1288258E78text_name" font-size="12" x="164.6083435402103" y="165.29052983908136" oryx:edgePosition="startTop" stroke-width="0pt" letter-spacing="-0.01px" fill="#000000" text-anchor="start" transform="rotate(357.3974377975002 150.6083435402103 179.29052983908136)" visibility="inherit" oryx:fontSize="12"/></g><g class="children" style="overflow:hidden"/><g class="edge"/></g><g class="controls"><g class="dockers"/><g class="magnets"/></g></g><g id="_C6CA719E-2621-4D7C-B15B-52BFA670298E" bpmn2nodeid="_73DE1075-F43F-4E6A-8876-0C00A9C15CFA"><g class="stencils"><g class="me"><g pointer-events="painted" bpmn2nodeid="_74C23BD0-D4DC-46AE-A555-C94985730FB9"><path id="_C6CA719E-2621-4D7C-B15B-52BFA670298E_1" d="M295.8431559993536 176.7532122758398L339.1568440006464 178.2467877241602 " stroke="#000000" fill="none" stroke-width="2" stroke-linecap="round" stroke-linejoin="round" marker-start="url(#_C6CA719E-2621-4D7C-B15B-52BFA670298Estart)" marker-end="url(#_C6CA719E-2621-4D7C-B15B-52BFA670298Eend)"/></g><text id="_C6CA719E-2621-4D7C-B15B-52BFA670298Etext_name" font-size="12" x="309.8431559993536" y="162.7532122758398" oryx:edgePosition="startTop" stroke-width="0pt" letter-spacing="-0.01px" fill="#000000" text-anchor="start" transform="rotate(1.9749340108819524 295.8431559993536 176.7532122758398)" visibility="inherit" oryx:fontSize="12"/></g><g class="children" style="overflow:hidden"/><g class="edge"/></g><g class="controls"><g class="dockers"/><g class="magnets"/></g></g><g id="_E29E92B3-118F-4BA3-9DA0-D4DDBB61C935" bpmn2nodeid="_994A0126-156A-4F17-8BE8-14223C01E438"><g class="stencils"><g class="me"><g pointer-events="painted" bpmn2nodeid="_A15E6D54-93DD-4196-9327-326CC2C20039"><path id="_E29E92B3-118F-4BA3-9DA0-D4DDBB61C935_1" d="M440.390625 180L484.375 180 " stroke="#000000" fill="none" stroke-width="2" stroke-linecap="round" stroke-linejoin="round" marker-start="url(#_E29E92B3-118F-4BA3-9DA0-D4DDBB61C935start)" marker-end="url(#_E29E92B3-118F-4BA3-9DA0-D4DDBB61C935end)"/></g><text id="_E29E92B3-118F-4BA3-9DA0-D4DDBB61C935text_name" font-size="12" x="454.390625" y="166" oryx:edgePosition="startTop" stroke-width="0pt" letter-spacing="-0.01px" fill="#000000" text-anchor="start" transform="rotate(360 440.390625 180)" visibility="inherit" oryx:fontSize="12"/></g><g class="children" style="overflow:hidden"/><g class="edge"/></g><g class="controls"><g class="dockers"/><g class="magnets"/></g></g></g><text id="_9089B114-04A3-4854-B0D8-9AED8FE77A35" style="stroke-width:1;fill:rgb(177,194,214);font-family:arial;font-weight:bold" font-size="12" onclick="ORYX.Plugins.CanvasTitle.openTextualAnalysis()" onmouseover="ORYX.Plugins.CanvasTitle.addToolTip('_9089B114-04A3-4854-B0D8-9AED8FE77A35')" transform="translate(10, 20)">process v.1.0 (newformmodeler.process)</text></g></g></svg>